<svg width="764" height="93" viewBox="0 0 764 93" fill="none" xmlns="http://www.w3.org/2000/svg">
<path d="M8.6785 92.28C6.1185 92.28 4.0705 91.5973 2.5345 90.232C0.9985 88.8667 0.2305 86.9893 0.2305 84.6V31.864C0.2305 21.9653 3.0465 14.2 8.6785 8.56799C14.3105 2.93599 22.0758 0.119995 31.9745 0.119995C36.7532 0.119995 41.2332 1.31466 45.4145 3.70399C49.6812 6.008 53.3505 9.336 56.4225 13.688C59.4092 9.25066 62.9932 5.88 67.1745 3.576C71.4412 1.272 76.0492 0.119995 80.9985 0.119995C90.8972 0.119995 98.6625 2.93599 104.295 8.56799C109.927 14.2 112.743 21.9653 112.743 31.864V84.6C112.743 86.904 111.932 88.7813 110.311 90.232C108.775 91.5973 106.727 92.28 104.167 92.28C101.607 92.28 99.5585 91.5973 98.0225 90.232C96.4865 88.8667 95.7185 86.9893 95.7185 84.6V31.864C95.7185 25.3787 94.5238 20.728 92.1345 17.912C89.7452 15.0107 85.8198 13.56 80.3585 13.56C75.4092 13.56 71.5692 15.1387 68.8385 18.296C66.1932 21.4533 64.8705 25.976 64.8705 31.864V84.6C64.8705 86.9893 64.1025 88.8667 62.5665 90.232C61.0305 91.5973 58.9825 92.28 56.4225 92.28C53.8625 92.28 51.8145 91.5973 50.2785 90.232C48.8278 88.8667 48.1025 86.9893 48.1025 84.6V31.864C48.1025 26.1467 46.7372 21.6667 44.0065 18.424C41.2758 15.1813 37.4785 13.56 32.6145 13.56C27.1532 13.56 23.2278 15.0107 20.8385 17.912C18.4492 20.728 17.2545 25.3787 17.2545 31.864V84.6C17.2545 86.904 16.4438 88.7813 14.8225 90.232C13.2865 91.5973 11.2385 92.28 8.6785 92.28ZM199.554 0.119995C202.114 0.119995 204.162 0.802663 205.698 2.168C207.234 3.53333 208.002 5.41066 208.002 7.8V21.24C208.002 32.5893 205.143 41.848 199.426 49.016C193.708 56.0987 185.73 60.408 175.49 61.944V84.6C175.49 86.904 174.679 88.7813 173.058 90.232C171.522 91.5973 169.474 92.28 166.914 92.28C164.354 92.28 162.306 91.5973 160.77 90.232C159.234 88.8667 158.466 86.9893 158.466 84.6V61.944C148.14 60.408 140.119 56.0987 134.402 49.016C128.684 41.9333 125.826 32.6747 125.826 21.24V7.8C125.826 5.41066 126.594 3.53333 128.13 2.168C129.666 0.802663 131.714 0.119995 134.274 0.119995C136.834 0.119995 138.882 0.845329 140.418 2.296C142.039 3.66133 142.85 5.49599 142.85 7.8V21.624C142.85 30.4987 144.898 37.3253 148.994 42.104C153.175 46.7973 159.148 49.144 166.914 49.144C174.679 49.144 180.61 46.7973 184.706 42.104C188.887 37.3253 190.978 30.4987 190.978 21.624V7.8C190.978 5.49599 191.746 3.66133 193.282 2.296C194.903 0.845329 196.994 0.119995 199.554 0.119995ZM229.554 92.28C226.994 92.28 224.946 91.5973 223.41 90.232C221.874 88.8667 221.106 86.9893 221.106 84.6V20.344C221.106 14.3707 222.812 9.72 226.226 6.392C229.724 3.064 234.546 1.39999 240.69 1.39999H262.322C275.292 1.39999 285.148 4.08799 291.89 9.464C298.631 14.84 302.002 22.7333 302.002 33.144C302.002 43.5547 298.716 51.448 292.146 56.824C285.575 62.2 275.89 64.888 263.09 64.888H238.13V84.6C238.13 86.904 237.319 88.7813 235.698 90.232C234.162 91.5973 232.114 92.28 229.554 92.28ZM262.962 51.704C277.554 51.704 284.85 45.5173 284.85 33.144C284.85 20.7707 277.554 14.584 262.962 14.584H243.634C241.927 14.584 240.562 15.1387 239.538 16.248C238.599 17.3573 238.13 18.8933 238.13 20.856V51.704H262.962ZM359.823 92.28C349.839 92.28 341.22 90.36 333.967 86.52C326.799 82.5947 321.337 77.176 317.583 70.264C313.828 63.2667 311.951 55.2453 311.951 46.2C311.951 37.1547 313.828 29.176 317.583 22.264C321.337 15.2667 326.799 9.848 333.967 6.008C341.22 2.08266 349.839 0.119995 359.823 0.119995C369.807 0.119995 378.383 2.08266 385.551 6.008C392.804 9.848 398.308 15.2667 402.063 22.264C405.817 29.176 407.695 37.1547 407.695 46.2C407.695 55.2453 405.817 63.2667 402.063 70.264C398.308 77.176 392.804 82.5947 385.551 86.52C378.383 90.36 369.807 92.28 359.823 92.28ZM359.823 78.84C369.551 78.84 377.103 75.9387 382.479 70.136C387.855 64.248 390.543 56.2693 390.543 46.2C390.543 36.0453 387.727 28.0667 382.095 22.264C376.548 16.4613 368.697 13.56 358.543 13.56C349.241 13.56 341.988 16.5467 336.783 22.52C331.663 28.408 329.103 36.3013 329.103 46.2C329.103 56.2693 331.791 64.248 337.167 70.136C342.543 75.9387 350.095 78.84 359.823 78.84ZM441.211 91C434.725 91 429.691 89.2933 426.107 85.88C422.523 82.4667 420.731 77.688 420.731 71.544V20.344C420.731 14.3707 422.437 9.72 425.851 6.392C429.349 3.064 434.171 1.39999 440.315 1.39999H458.235C468.048 1.39999 476.539 3.19199 483.707 6.77599C490.875 10.36 496.336 15.5227 500.091 22.264C503.931 29.0053 505.851 37.0267 505.851 46.328C505.851 55.6293 503.931 63.6507 500.091 70.392C496.336 77.048 490.875 82.168 483.707 85.752C476.624 89.2507 468.133 91 458.235 91H441.211ZM456.955 77.816C467.621 77.816 475.557 75.256 480.763 70.136C485.968 64.9307 488.571 56.9947 488.571 46.328C488.571 35.6613 485.925 27.7253 480.635 22.52C475.429 17.2293 467.536 14.584 456.955 14.584H443.259C441.552 14.584 440.187 15.1387 439.163 16.248C438.224 17.3573 437.755 18.8933 437.755 20.856V71.544C437.755 73.5067 438.224 75.0427 439.163 76.152C440.187 77.2613 441.552 77.816 443.259 77.816H456.955ZM527.304 92.28C524.744 92.28 522.696 91.5973 521.16 90.232C519.624 88.8667 518.856 86.9893 518.856 84.6V31.864C518.856 21.9653 521.672 14.2 527.304 8.56799C532.936 2.93599 540.701 0.119995 550.6 0.119995C555.378 0.119995 559.858 1.31466 564.04 3.70399C568.306 6.008 571.976 9.336 575.048 13.688C578.034 9.25066 581.618 5.88 585.8 3.576C590.066 1.272 594.674 0.119995 599.624 0.119995C609.522 0.119995 617.288 2.93599 622.92 8.56799C628.552 14.2 631.368 21.9653 631.368 31.864V84.6C631.368 86.904 630.557 88.7813 628.936 90.232C627.4 91.5973 625.352 92.28 622.792 92.28C620.232 92.28 618.184 91.5973 616.648 90.232C615.112 88.8667 614.344 86.9893 614.344 84.6V31.864C614.344 25.3787 613.149 20.728 610.76 17.912C608.37 15.0107 604.445 13.56 598.984 13.56C594.034 13.56 590.194 15.1387 587.464 18.296C584.818 21.4533 583.496 25.976 583.496 31.864V84.6C583.496 86.9893 582.728 88.8667 581.192 90.232C579.656 91.5973 577.608 92.28 575.048 92.28C572.488 92.28 570.44 91.5973 568.904 90.232C567.453 88.8667 566.728 86.9893 566.728 84.6V31.864C566.728 26.1467 565.362 21.6667 562.632 18.424C559.901 15.1813 556.104 13.56 551.24 13.56C545.778 13.56 541.853 15.0107 539.464 17.912C537.074 20.728 535.88 25.3787 535.88 31.864V84.6C535.88 86.904 535.069 88.7813 533.448 90.232C531.912 91.5973 529.864 92.28 527.304 92.28ZM658.019 92.28C655.459 92.28 653.411 91.5973 651.875 90.232C650.339 88.8667 649.571 86.9893 649.571 84.6V7.8C649.571 5.41066 650.339 3.53333 651.875 2.168C653.411 0.802663 655.459 0.119995 658.019 0.119995C660.493 0.119995 662.541 0.802663 664.163 2.168C665.784 3.53333 666.595 5.41066 666.595 7.8V84.6C666.595 86.9893 665.784 88.8667 664.163 90.232C662.541 91.5973 660.493 92.28 658.019 92.28ZM761.659 80.12C762.597 81.3147 763.067 82.68 763.067 84.216C763.067 85.5813 762.725 86.904 762.043 88.184C761.36 89.3787 760.464 90.3173 759.355 91C757.989 91.768 756.667 92.152 755.387 92.152C753.253 92.152 751.077 90.872 748.859 88.312L723.259 57.592L697.659 88.312C695.525 90.872 693.349 92.152 691.131 92.152C689.936 92.152 688.613 91.768 687.163 91C686.053 90.3173 685.157 89.3787 684.475 88.184C683.792 86.904 683.451 85.5813 683.451 84.216C683.451 82.68 683.92 81.3147 684.859 80.12L713.275 45.688L686.395 13.432C685.029 11.8107 684.347 9.976 684.347 7.92799C684.347 6.64799 684.645 5.45333 685.243 4.34399C685.84 3.14933 686.651 2.25333 687.675 1.656C689.296 0.717328 690.789 0.247993 692.155 0.247993C694.459 0.247993 696.635 1.48533 698.683 3.96L723.259 33.656L747.835 3.96C749.883 1.48533 752.059 0.247993 754.363 0.247993C755.899 0.247993 757.392 0.717328 758.843 1.656C759.867 2.25333 760.677 3.14933 761.275 4.34399C761.872 5.45333 762.171 6.64799 762.171 7.92799C762.171 9.976 761.488 11.8107 760.123 13.432L733.243 45.688L761.659 80.12Z" fill="#F77531"/>
</svg>
